<mxfile host="Electron" modified="2023-10-31T05:36:23.325Z" agent="Mozilla/5.0 (Windows NT 10.0; Win64; x64) AppleWebKit/537.36 (KHTML, like Gecko) draw.io/22.0.3 Chrome/114.0.5735.289 Electron/25.8.4 Safari/537.36" etag="m773w7HUcCErAQJVMBuL" version="22.0.3" type="device">
  <diagram name="第 1 页" id="l3G3ZHEXdOYZOqpPIXNz">
    <mxGraphModel dx="1206" dy="702" grid="1" gridSize="10" guides="1" tooltips="1" connect="1" arrows="1" fold="1" page="1" pageScale="1" pageWidth="827" pageHeight="1169" math="0" shadow="0">
      <root>
        <mxCell id="0" />
        <mxCell id="1" parent="0" />
        <mxCell id="gvQnE2JqEdoc-HyVGFYi-1" value="产品" style="rounded=0;whiteSpace=wrap;html=1;" parent="1" vertex="1">
          <mxGeometry x="269" y="547.5" width="120" height="60" as="geometry" />
        </mxCell>
        <mxCell id="gvQnE2JqEdoc-HyVGFYi-24" style="edgeStyle=none;rounded=0;orthogonalLoop=1;jettySize=auto;html=1;exitX=0.5;exitY=0;exitDx=0;exitDy=0;entryX=0.5;entryY=1;entryDx=0;entryDy=0;endArrow=none;endFill=0;" parent="1" source="gvQnE2JqEdoc-HyVGFYi-2" target="gvQnE2JqEdoc-HyVGFYi-23" edge="1">
          <mxGeometry relative="1" as="geometry" />
        </mxCell>
        <mxCell id="gvQnE2JqEdoc-HyVGFYi-25" style="edgeStyle=none;rounded=0;orthogonalLoop=1;jettySize=auto;html=1;exitX=0.5;exitY=0;exitDx=0;exitDy=0;entryX=0.5;entryY=1;entryDx=0;entryDy=0;endArrow=none;endFill=0;" parent="1" source="gvQnE2JqEdoc-HyVGFYi-2" target="gvQnE2JqEdoc-HyVGFYi-22" edge="1">
          <mxGeometry relative="1" as="geometry" />
        </mxCell>
        <mxCell id="gvQnE2JqEdoc-HyVGFYi-26" style="edgeStyle=none;rounded=0;orthogonalLoop=1;jettySize=auto;html=1;exitX=0.5;exitY=0;exitDx=0;exitDy=0;entryX=0.5;entryY=1;entryDx=0;entryDy=0;endArrow=none;endFill=0;" parent="1" source="gvQnE2JqEdoc-HyVGFYi-2" target="gvQnE2JqEdoc-HyVGFYi-17" edge="1">
          <mxGeometry relative="1" as="geometry" />
        </mxCell>
        <mxCell id="gvQnE2JqEdoc-HyVGFYi-27" style="edgeStyle=none;rounded=0;orthogonalLoop=1;jettySize=auto;html=1;exitX=0.5;exitY=0;exitDx=0;exitDy=0;entryX=0.5;entryY=1;entryDx=0;entryDy=0;endArrow=none;endFill=0;" parent="1" source="gvQnE2JqEdoc-HyVGFYi-2" target="gvQnE2JqEdoc-HyVGFYi-16" edge="1">
          <mxGeometry relative="1" as="geometry" />
        </mxCell>
        <mxCell id="gvQnE2JqEdoc-HyVGFYi-28" style="edgeStyle=none;rounded=0;orthogonalLoop=1;jettySize=auto;html=1;exitX=0.5;exitY=0;exitDx=0;exitDy=0;entryX=0.5;entryY=1;entryDx=0;entryDy=0;endArrow=none;endFill=0;" parent="1" source="gvQnE2JqEdoc-HyVGFYi-2" target="gvQnE2JqEdoc-HyVGFYi-18" edge="1">
          <mxGeometry relative="1" as="geometry" />
        </mxCell>
        <mxCell id="gvQnE2JqEdoc-HyVGFYi-29" style="edgeStyle=none;rounded=0;orthogonalLoop=1;jettySize=auto;html=1;exitX=0.5;exitY=0;exitDx=0;exitDy=0;entryX=0.5;entryY=1;entryDx=0;entryDy=0;endArrow=none;endFill=0;" parent="1" source="gvQnE2JqEdoc-HyVGFYi-2" target="gvQnE2JqEdoc-HyVGFYi-19" edge="1">
          <mxGeometry relative="1" as="geometry" />
        </mxCell>
        <mxCell id="gvQnE2JqEdoc-HyVGFYi-30" style="edgeStyle=none;rounded=0;orthogonalLoop=1;jettySize=auto;html=1;exitX=0.5;exitY=0;exitDx=0;exitDy=0;entryX=0.5;entryY=1;entryDx=0;entryDy=0;endArrow=none;endFill=0;" parent="1" source="gvQnE2JqEdoc-HyVGFYi-2" target="gvQnE2JqEdoc-HyVGFYi-20" edge="1">
          <mxGeometry relative="1" as="geometry" />
        </mxCell>
        <mxCell id="gvQnE2JqEdoc-HyVGFYi-31" style="edgeStyle=none;rounded=0;orthogonalLoop=1;jettySize=auto;html=1;exitX=0.5;exitY=0;exitDx=0;exitDy=0;entryX=0.5;entryY=1;entryDx=0;entryDy=0;endArrow=none;endFill=0;" parent="1" source="gvQnE2JqEdoc-HyVGFYi-2" target="gvQnE2JqEdoc-HyVGFYi-21" edge="1">
          <mxGeometry relative="1" as="geometry" />
        </mxCell>
        <mxCell id="gvQnE2JqEdoc-HyVGFYi-33" style="edgeStyle=none;rounded=0;orthogonalLoop=1;jettySize=auto;html=1;exitX=0.5;exitY=0;exitDx=0;exitDy=0;entryX=0.5;entryY=1;entryDx=0;entryDy=0;endArrow=none;endFill=0;" parent="1" source="gvQnE2JqEdoc-HyVGFYi-2" target="gvQnE2JqEdoc-HyVGFYi-32" edge="1">
          <mxGeometry relative="1" as="geometry" />
        </mxCell>
        <mxCell id="u4JzcEGNVIGo0uFq_wSA-2" style="edgeStyle=orthogonalEdgeStyle;rounded=0;orthogonalLoop=1;jettySize=auto;html=1;exitX=0.5;exitY=1;exitDx=0;exitDy=0;endArrow=none;endFill=0;" edge="1" parent="1" source="gvQnE2JqEdoc-HyVGFYi-2" target="u4JzcEGNVIGo0uFq_wSA-1">
          <mxGeometry relative="1" as="geometry" />
        </mxCell>
        <mxCell id="u4JzcEGNVIGo0uFq_wSA-5" style="edgeStyle=orthogonalEdgeStyle;rounded=0;orthogonalLoop=1;jettySize=auto;html=1;exitX=1;exitY=0.5;exitDx=0;exitDy=0;endArrow=none;endFill=0;" edge="1" parent="1" source="gvQnE2JqEdoc-HyVGFYi-2" target="u4JzcEGNVIGo0uFq_wSA-4">
          <mxGeometry relative="1" as="geometry" />
        </mxCell>
        <mxCell id="gvQnE2JqEdoc-HyVGFYi-2" value="BOM表" style="rounded=0;whiteSpace=wrap;html=1;" parent="1" vertex="1">
          <mxGeometry x="269" y="350" width="120" height="60" as="geometry" />
        </mxCell>
        <mxCell id="gvQnE2JqEdoc-HyVGFYi-4" value="零件" style="rounded=0;whiteSpace=wrap;html=1;" parent="1" vertex="1">
          <mxGeometry x="630" y="350" width="120" height="60" as="geometry" />
        </mxCell>
        <mxCell id="gvQnE2JqEdoc-HyVGFYi-6" value="1" style="text;html=1;strokeColor=none;fillColor=none;align=center;verticalAlign=middle;whiteSpace=wrap;rounded=0;" parent="1" vertex="1">
          <mxGeometry x="384" y="350" width="60" height="30" as="geometry" />
        </mxCell>
        <mxCell id="gvQnE2JqEdoc-HyVGFYi-7" value="n" style="text;html=1;strokeColor=none;fillColor=none;align=center;verticalAlign=middle;whiteSpace=wrap;rounded=0;" parent="1" vertex="1">
          <mxGeometry x="575" y="350" width="60" height="30" as="geometry" />
        </mxCell>
        <mxCell id="gvQnE2JqEdoc-HyVGFYi-13" style="edgeStyle=orthogonalEdgeStyle;rounded=0;orthogonalLoop=1;jettySize=auto;html=1;exitX=0.5;exitY=1;exitDx=0;exitDy=0;endArrow=none;endFill=0;" parent="1" source="gvQnE2JqEdoc-HyVGFYi-34" target="gvQnE2JqEdoc-HyVGFYi-12" edge="1">
          <mxGeometry relative="1" as="geometry" />
        </mxCell>
        <mxCell id="gvQnE2JqEdoc-HyVGFYi-40" style="edgeStyle=none;rounded=0;orthogonalLoop=1;jettySize=auto;html=1;exitX=1;exitY=0.5;exitDx=0;exitDy=0;entryX=0;entryY=0.5;entryDx=0;entryDy=0;endArrow=none;endFill=0;" parent="1" source="gvQnE2JqEdoc-HyVGFYi-8" target="gvQnE2JqEdoc-HyVGFYi-36" edge="1">
          <mxGeometry relative="1" as="geometry" />
        </mxCell>
        <mxCell id="gvQnE2JqEdoc-HyVGFYi-41" style="edgeStyle=none;rounded=0;orthogonalLoop=1;jettySize=auto;html=1;exitX=1;exitY=0.5;exitDx=0;exitDy=0;entryX=0;entryY=0.5;entryDx=0;entryDy=0;endArrow=none;endFill=0;" parent="1" source="gvQnE2JqEdoc-HyVGFYi-8" target="gvQnE2JqEdoc-HyVGFYi-37" edge="1">
          <mxGeometry relative="1" as="geometry" />
        </mxCell>
        <mxCell id="gvQnE2JqEdoc-HyVGFYi-47" style="edgeStyle=none;rounded=0;orthogonalLoop=1;jettySize=auto;html=1;exitX=1;exitY=0.5;exitDx=0;exitDy=0;entryX=0;entryY=0.5;entryDx=0;entryDy=0;endArrow=none;endFill=0;" parent="1" source="gvQnE2JqEdoc-HyVGFYi-8" target="gvQnE2JqEdoc-HyVGFYi-46" edge="1">
          <mxGeometry relative="1" as="geometry" />
        </mxCell>
        <mxCell id="gvQnE2JqEdoc-HyVGFYi-8" value="工艺路线" style="rounded=0;whiteSpace=wrap;html=1;" parent="1" vertex="1">
          <mxGeometry x="630" y="545" width="120" height="60" as="geometry" />
        </mxCell>
        <mxCell id="u4JzcEGNVIGo0uFq_wSA-9" style="edgeStyle=orthogonalEdgeStyle;rounded=0;orthogonalLoop=1;jettySize=auto;html=1;exitX=1;exitY=0;exitDx=0;exitDy=0;entryX=0.5;entryY=0;entryDx=0;entryDy=0;endArrow=none;endFill=0;" edge="1" parent="1" source="gvQnE2JqEdoc-HyVGFYi-10" target="u4JzcEGNVIGo0uFq_wSA-8">
          <mxGeometry relative="1" as="geometry" />
        </mxCell>
        <mxCell id="gvQnE2JqEdoc-HyVGFYi-10" value="1" style="text;html=1;strokeColor=none;fillColor=none;align=center;verticalAlign=middle;whiteSpace=wrap;rounded=0;" parent="1" vertex="1">
          <mxGeometry x="635" y="410" width="60" height="30" as="geometry" />
        </mxCell>
        <mxCell id="gvQnE2JqEdoc-HyVGFYi-11" value="1" style="text;html=1;strokeColor=none;fillColor=none;align=center;verticalAlign=middle;whiteSpace=wrap;rounded=0;" parent="1" vertex="1">
          <mxGeometry x="635" y="515" width="60" height="30" as="geometry" />
        </mxCell>
        <mxCell id="gvQnE2JqEdoc-HyVGFYi-49" style="edgeStyle=none;rounded=0;orthogonalLoop=1;jettySize=auto;html=1;exitX=1;exitY=0.5;exitDx=0;exitDy=0;entryX=0;entryY=0.5;entryDx=0;entryDy=0;endArrow=none;endFill=0;" parent="1" source="gvQnE2JqEdoc-HyVGFYi-12" target="gvQnE2JqEdoc-HyVGFYi-44" edge="1">
          <mxGeometry relative="1" as="geometry" />
        </mxCell>
        <mxCell id="gvQnE2JqEdoc-HyVGFYi-50" style="edgeStyle=none;rounded=0;orthogonalLoop=1;jettySize=auto;html=1;exitX=1;exitY=0.5;exitDx=0;exitDy=0;entryX=0;entryY=0.5;entryDx=0;entryDy=0;endArrow=none;endFill=0;" parent="1" source="gvQnE2JqEdoc-HyVGFYi-12" target="gvQnE2JqEdoc-HyVGFYi-45" edge="1">
          <mxGeometry relative="1" as="geometry" />
        </mxCell>
        <mxCell id="gvQnE2JqEdoc-HyVGFYi-51" style="edgeStyle=none;rounded=0;orthogonalLoop=1;jettySize=auto;html=1;exitX=1;exitY=0.5;exitDx=0;exitDy=0;entryX=0;entryY=0.5;entryDx=0;entryDy=0;endArrow=none;endFill=0;" parent="1" source="gvQnE2JqEdoc-HyVGFYi-12" target="gvQnE2JqEdoc-HyVGFYi-48" edge="1">
          <mxGeometry relative="1" as="geometry" />
        </mxCell>
        <mxCell id="gvQnE2JqEdoc-HyVGFYi-12" value="工序" style="rounded=0;whiteSpace=wrap;html=1;" parent="1" vertex="1">
          <mxGeometry x="630" y="775" width="120" height="60" as="geometry" />
        </mxCell>
        <mxCell id="gvQnE2JqEdoc-HyVGFYi-14" value="1" style="text;html=1;strokeColor=none;fillColor=none;align=center;verticalAlign=middle;whiteSpace=wrap;rounded=0;" parent="1" vertex="1">
          <mxGeometry x="650" y="605" width="60" height="30" as="geometry" />
        </mxCell>
        <mxCell id="gvQnE2JqEdoc-HyVGFYi-15" value="n" style="text;html=1;strokeColor=none;fillColor=none;align=center;verticalAlign=middle;whiteSpace=wrap;rounded=0;" parent="1" vertex="1">
          <mxGeometry x="650" y="745" width="60" height="30" as="geometry" />
        </mxCell>
        <mxCell id="gvQnE2JqEdoc-HyVGFYi-16" value="层级" style="rounded=0;whiteSpace=wrap;html=1;" parent="1" vertex="1">
          <mxGeometry x="295" y="242.5" width="50" height="30" as="geometry" />
        </mxCell>
        <mxCell id="gvQnE2JqEdoc-HyVGFYi-17" value="编号" style="rounded=0;whiteSpace=wrap;html=1;" parent="1" vertex="1">
          <mxGeometry x="229" y="242.5" width="50" height="30" as="geometry" />
        </mxCell>
        <mxCell id="gvQnE2JqEdoc-HyVGFYi-18" value="名称" style="rounded=0;whiteSpace=wrap;html=1;" parent="1" vertex="1">
          <mxGeometry x="365" y="242.5" width="50" height="30" as="geometry" />
        </mxCell>
        <mxCell id="gvQnE2JqEdoc-HyVGFYi-19" value="数量" style="rounded=0;whiteSpace=wrap;html=1;" parent="1" vertex="1">
          <mxGeometry x="435" y="242.5" width="50" height="30" as="geometry" />
        </mxCell>
        <mxCell id="gvQnE2JqEdoc-HyVGFYi-20" value="描述" style="rounded=0;whiteSpace=wrap;html=1;" parent="1" vertex="1">
          <mxGeometry x="505" y="242.5" width="50" height="30" as="geometry" />
        </mxCell>
        <mxCell id="gvQnE2JqEdoc-HyVGFYi-21" value="生产周期" style="rounded=0;whiteSpace=wrap;html=1;" parent="1" vertex="1">
          <mxGeometry x="575" y="242.5" width="60" height="30" as="geometry" />
        </mxCell>
        <mxCell id="gvQnE2JqEdoc-HyVGFYi-22" value="成本" style="rounded=0;whiteSpace=wrap;html=1;" parent="1" vertex="1">
          <mxGeometry x="165" y="242.5" width="50" height="30" as="geometry" />
        </mxCell>
        <mxCell id="gvQnE2JqEdoc-HyVGFYi-23" value="注释" style="rounded=0;whiteSpace=wrap;html=1;" parent="1" vertex="1">
          <mxGeometry x="90" y="242.5" width="50" height="30" as="geometry" />
        </mxCell>
        <mxCell id="gvQnE2JqEdoc-HyVGFYi-32" value="自定义列" style="rounded=0;whiteSpace=wrap;html=1;" parent="1" vertex="1">
          <mxGeometry x="655" y="242.5" width="60" height="30" as="geometry" />
        </mxCell>
        <mxCell id="gvQnE2JqEdoc-HyVGFYi-35" value="" style="edgeStyle=orthogonalEdgeStyle;rounded=0;orthogonalLoop=1;jettySize=auto;html=1;exitX=0.5;exitY=1;exitDx=0;exitDy=0;endArrow=none;endFill=0;" parent="1" source="gvQnE2JqEdoc-HyVGFYi-8" target="gvQnE2JqEdoc-HyVGFYi-34" edge="1">
          <mxGeometry relative="1" as="geometry">
            <mxPoint x="690" y="605" as="sourcePoint" />
            <mxPoint x="690" y="775" as="targetPoint" />
          </mxGeometry>
        </mxCell>
        <mxCell id="gvQnE2JqEdoc-HyVGFYi-34" value="包含" style="rhombus;whiteSpace=wrap;html=1;" parent="1" vertex="1">
          <mxGeometry x="622.5" y="645" width="135" height="80" as="geometry" />
        </mxCell>
        <mxCell id="gvQnE2JqEdoc-HyVGFYi-36" value="编号" style="rounded=0;whiteSpace=wrap;html=1;" parent="1" vertex="1">
          <mxGeometry x="820" y="510" width="50" height="30" as="geometry" />
        </mxCell>
        <mxCell id="gvQnE2JqEdoc-HyVGFYi-37" value="说明" style="rounded=0;whiteSpace=wrap;html=1;" parent="1" vertex="1">
          <mxGeometry x="820" y="560" width="50" height="30" as="geometry" />
        </mxCell>
        <mxCell id="gvQnE2JqEdoc-HyVGFYi-44" value="工序号" style="rounded=0;whiteSpace=wrap;html=1;" parent="1" vertex="1">
          <mxGeometry x="785" y="745" width="45" height="30" as="geometry" />
        </mxCell>
        <mxCell id="gvQnE2JqEdoc-HyVGFYi-45" value="工序说明" style="rounded=0;whiteSpace=wrap;html=1;" parent="1" vertex="1">
          <mxGeometry x="785" y="790" width="55" height="30" as="geometry" />
        </mxCell>
        <mxCell id="gvQnE2JqEdoc-HyVGFYi-46" value="车间ID" style="rounded=0;whiteSpace=wrap;html=1;" parent="1" vertex="1">
          <mxGeometry x="820" y="615" width="70" height="30" as="geometry" />
        </mxCell>
        <mxCell id="gvQnE2JqEdoc-HyVGFYi-48" value="工作中心ID" style="rounded=0;whiteSpace=wrap;html=1;" parent="1" vertex="1">
          <mxGeometry x="785" y="890" width="70" height="30" as="geometry" />
        </mxCell>
        <mxCell id="u4JzcEGNVIGo0uFq_wSA-3" style="edgeStyle=orthogonalEdgeStyle;rounded=0;orthogonalLoop=1;jettySize=auto;html=1;exitX=0.5;exitY=1;exitDx=0;exitDy=0;entryX=0.5;entryY=0;entryDx=0;entryDy=0;endArrow=none;endFill=0;" edge="1" parent="1" source="u4JzcEGNVIGo0uFq_wSA-1" target="gvQnE2JqEdoc-HyVGFYi-1">
          <mxGeometry relative="1" as="geometry" />
        </mxCell>
        <mxCell id="u4JzcEGNVIGo0uFq_wSA-1" value="具有" style="rhombus;whiteSpace=wrap;html=1;" vertex="1" parent="1">
          <mxGeometry x="269" y="442.5" width="120" height="80" as="geometry" />
        </mxCell>
        <mxCell id="u4JzcEGNVIGo0uFq_wSA-7" style="edgeStyle=orthogonalEdgeStyle;rounded=0;orthogonalLoop=1;jettySize=auto;html=1;exitX=1;exitY=0.5;exitDx=0;exitDy=0;entryX=0;entryY=0.5;entryDx=0;entryDy=0;endArrow=none;endFill=0;" edge="1" parent="1" source="u4JzcEGNVIGo0uFq_wSA-4" target="gvQnE2JqEdoc-HyVGFYi-4">
          <mxGeometry relative="1" as="geometry" />
        </mxCell>
        <mxCell id="u4JzcEGNVIGo0uFq_wSA-4" value="包含" style="rhombus;whiteSpace=wrap;html=1;" vertex="1" parent="1">
          <mxGeometry x="455" y="340" width="120" height="80" as="geometry" />
        </mxCell>
        <mxCell id="u4JzcEGNVIGo0uFq_wSA-10" style="edgeStyle=orthogonalEdgeStyle;rounded=0;orthogonalLoop=1;jettySize=auto;html=1;exitX=0.5;exitY=1;exitDx=0;exitDy=0;endArrow=none;endFill=0;" edge="1" parent="1" source="u4JzcEGNVIGo0uFq_wSA-8" target="gvQnE2JqEdoc-HyVGFYi-8">
          <mxGeometry relative="1" as="geometry" />
        </mxCell>
        <mxCell id="u4JzcEGNVIGo0uFq_wSA-8" value="拥有" style="rhombus;whiteSpace=wrap;html=1;" vertex="1" parent="1">
          <mxGeometry x="630" y="435" width="120" height="80" as="geometry" />
        </mxCell>
        <mxCell id="u4JzcEGNVIGo0uFq_wSA-11" value="工序时长" style="rounded=0;whiteSpace=wrap;html=1;" vertex="1" parent="1">
          <mxGeometry x="785" y="840" width="55" height="30" as="geometry" />
        </mxCell>
        <mxCell id="u4JzcEGNVIGo0uFq_wSA-12" style="rounded=0;orthogonalLoop=1;jettySize=auto;html=1;exitX=0;exitY=0.5;exitDx=0;exitDy=0;entryX=1.022;entryY=0.633;entryDx=0;entryDy=0;entryPerimeter=0;endArrow=none;endFill=0;" edge="1" parent="1" source="u4JzcEGNVIGo0uFq_wSA-11" target="gvQnE2JqEdoc-HyVGFYi-12">
          <mxGeometry relative="1" as="geometry" />
        </mxCell>
        <mxCell id="u4JzcEGNVIGo0uFq_wSA-13" value="对应工艺路线号" style="rounded=0;whiteSpace=wrap;html=1;" vertex="1" parent="1">
          <mxGeometry x="785" y="940" width="95" height="30" as="geometry" />
        </mxCell>
        <mxCell id="u4JzcEGNVIGo0uFq_wSA-14" style="rounded=0;orthogonalLoop=1;jettySize=auto;html=1;exitX=0;exitY=0.5;exitDx=0;exitDy=0;entryX=1;entryY=0.5;entryDx=0;entryDy=0;endArrow=none;endFill=0;" edge="1" parent="1" source="u4JzcEGNVIGo0uFq_wSA-13" target="gvQnE2JqEdoc-HyVGFYi-12">
          <mxGeometry relative="1" as="geometry">
            <mxPoint x="757.5" y="853" as="targetPoint" />
          </mxGeometry>
        </mxCell>
      </root>
    </mxGraphModel>
  </diagram>
</mxfile>
